<?xml version="1.0" encoding="UTF-8"?>
<svg id="Layer_1" data-name="Layer 1" xmlns="http://www.w3.org/2000/svg" viewBox="0 0 90.07 105.94">
  <g>
    <path d="M89.54.9l-2.76,40.57c-.08,1.03-.16,2.09-.24,3.13-.08,1.03-.16,2.09-.24,3.13-.08,1.03-.16,2.09-.24,3.13-.08,1.03-.16,2.09-.24,3.13-.09,1.12-.15,2.25-.24,3.37-.07.95-.16,1.93-.24,2.89-.08,1.03-.16,2.09-.24,3.13-.09,1.12-.15,2.25-.24,3.37-.08.95-.16,1.93-.24,2.89-.08,1.04-.16,2.09-.24,3.13-.09,1.12-.15,2.25-.24,3.37-.08,1.04-.15,2.09-.24,3.13-.08,1.04-.15,2.09-.24,3.13-.09,1.12-.14,2.25-.24,3.37-.08.95-.16,1.93-.24,2.89-.1,1.12-.13,2.26-.24,3.37-.11,1.12-.11,2.28-.24,3.37-.11.94-.09,2-.24,2.89-.07.4-.14,1.11-.24,1.44-.06.19-.17.54-.24.72-.63,1.57-3.2,4.31-4.81,4.81-.23.07-.7-.18-.72.24H14.62c-.07-.45-.69-.15-.96-.24-1.55-.48-4.2-3.28-4.81-4.81-.06-.14-.15-.65-.24-.96-.1-.35-.18-1.04-.24-1.44-.15-.97-.13-2.1-.24-3.13-.11-1.02-.14-2.09-.24-3.13-.1-1.03-.14-2.09-.24-3.13-.09-1.03-.15-2.09-.24-3.13-.09-1.04-.15-2.09-.24-3.13-.09-1.04-.15-2.09-.24-3.13-.09-1.04-.16-2.09-.24-3.13-.09-1.12-.15-2.25-.24-3.37-.08-1.04-.16-2.09-.24-3.13-.08-1.04-.16-2.09-.24-3.13-.08-1.04-.16-2.09-.24-3.13-.08-1.04-.16-2.09-.24-3.13-.08-1.04-.16-2.09-.24-3.13-.08-.96-.17-1.94-.24-2.89-.08-1.04-.16-2.09-.24-3.13-.09-1.12-.16-2.25-.24-3.37-.08-1.04-.16-2.09-.24-3.13-.08-1.04-.16-2.09-.24-3.13L.54.9l13.11-.39,7.03,92.94,49.19.18L77.04.51l12.5.39Z"/>
    <path d="M76.43,105.94H14.19l-.04-.25s-.06,0-.08,0c-.17.02-.37.04-.56-.02-1.7-.53-4.46-3.45-5.12-5.1-.04-.09-.09-.3-.14-.53-.04-.16-.08-.34-.12-.48-.08-.29-.14-.73-.2-1.13l-.05-.38c-.09-.57-.12-1.2-.15-1.8-.02-.46-.04-.91-.09-1.35-.06-.56-.1-1.14-.14-1.72-.03-.47-.06-.95-.1-1.41-.05-.55-.09-1.11-.13-1.66-.03-.49-.07-.98-.11-1.46-.05-.56-.09-1.12-.13-1.68-.03-.48-.07-.97-.11-1.45-.05-.54-.09-1.09-.13-1.64-.04-.5-.07-.99-.11-1.48-.04-.53-.08-1.06-.12-1.59-.04-.51-.08-1.03-.12-1.54-.05-.54-.09-1.09-.13-1.63-.04-.5-.07-1-.11-1.5-.05-.56-.08-1.13-.12-1.7-.04-.56-.07-1.12-.12-1.67-.04-.54-.08-1.08-.12-1.62l-1.08-14.02c-.04-.48-.08-.96-.12-1.44-.04-.49-.08-.97-.12-1.45l-.24-3.13c-.05-.6-.09-1.2-.13-1.8-.04-.52-.07-1.05-.11-1.57l-.48-6.25L0,.42,14.12,0l7.03,92.95,48.26.18L76.58,0l13.49.42-3.76,53.6c-.04.57-.08,1.14-.12,1.71-.04.55-.08,1.1-.12,1.65l-.48,6.01c-.04.56-.08,1.12-.12,1.67-.04.57-.08,1.13-.12,1.69l-.48,6.01c-.04.56-.08,1.12-.12,1.67-.04.57-.08,1.13-.12,1.69-.04.5-.08,1.01-.12,1.52-.04.54-.08,1.08-.12,1.61-.04.49-.08.98-.11,1.48-.04.55-.08,1.1-.13,1.65-.04.54-.08,1.08-.11,1.61-.04.59-.08,1.17-.13,1.75l-.1,1.22c-.05.56-.09,1.12-.14,1.67-.05.53-.08,1.07-.11,1.6-.04.59-.07,1.19-.13,1.77-.05.5-.08,1.02-.1,1.53-.03.62-.07,1.25-.14,1.85-.04.39-.07.8-.09,1.21-.03.57-.07,1.16-.15,1.7-.02.12-.04.28-.06.44-.05.39-.11.8-.19,1.06-.06.2-.18.58-.26.76-.69,1.71-3.35,4.54-5.12,5.1-.14.04-.27.04-.39.03l-.02.22-.46.02ZM14.93,104.94h61.18s.05-.06.08-.08c.25-.21.56-.18.75-.16.04,0,.08,0,.11,0,1.41-.44,3.88-3.07,4.45-4.51.07-.17.17-.5.23-.68.06-.19.11-.59.16-.91.02-.17.05-.34.07-.47.08-.48.11-1.04.14-1.59.02-.43.05-.86.09-1.27.07-.58.1-1.18.13-1.79.03-.53.06-1.05.11-1.57.06-.57.09-1.15.13-1.74.03-.54.07-1.09.11-1.63.05-.55.09-1.11.14-1.66l.1-1.22c.05-.58.09-1.15.12-1.73.04-.54.07-1.09.12-1.63s.09-1.09.13-1.64c.04-.5.07-.99.11-1.48.04-.53.08-1.07.12-1.6.04-.51.08-1.02.12-1.53.04-.56.08-1.12.12-1.68.04-.56.08-1.13.12-1.69l.48-6.01c.04-.56.08-1.12.12-1.68.04-.56.08-1.13.12-1.69l.48-6.01c.04-.54.08-1.09.12-1.64.04-.58.08-1.15.12-1.72l.96-12.5,2.73-40.05-11.5-.36-7.16,93.11-50.12-.18L13.19,1.03,1.09,1.39l3.93,46.3c.04.52.08,1.05.11,1.57.04.6.08,1.2.13,1.79l.24,3.13c.04.48.08.96.12,1.44.04.48.08.96.12,1.44l1.08,14.02c.04.54.08,1.08.12,1.61.05.56.08,1.12.12,1.69.04.56.07,1.12.12,1.68.04.5.08,1,.11,1.5.04.54.08,1.08.12,1.62.04.51.08,1.03.12,1.55.04.53.08,1.05.12,1.58.04.5.08,1,.11,1.5.04.54.08,1.09.13,1.63.04.49.08.97.11,1.46.04.56.08,1.11.13,1.66.05.49.08.99.11,1.49.04.55.07,1.09.13,1.63.05.48.08.96.11,1.45.04.56.07,1.13.13,1.67.05.46.07.94.1,1.41.03.6.06,1.17.14,1.69l.06.39c.05.34.11.77.17.99.04.15.09.35.13.53.04.17.07.32.1.39.55,1.37,3.1,4.08,4.49,4.51,0,0,.1-.01.16-.02.45-.05.77.03.96.24Z"/>
  </g>
  <path d="M86.41,38.33c-.24,1.09-.16,2.24-.24,3.36-.08,1.03-.16,2.08-.24,3.12-.08,1.03-.16,2.08-.24,3.12-.08,1.03-.16,2.08-.24,3.12-.08,1.03-.16,2.08-.24,3.12-.09,1.11-.15,2.24-.24,3.36-.07.95-.16,1.92-.24,2.88-.08,1.03-.16,2.08-.24,3.12-.09,1.12-.15,2.24-.24,3.36-.07.95-.16,1.92-.24,2.88-.08,1.03-.15,2.08-.24,3.12-.09,1.12-.15,2.24-.24,3.36-.08,1.03-.15,2.08-.24,3.12-.08,1.03-.15,2.08-.24,3.12-.09,1.12-.14,2.24-.24,3.36-.08.95-.15,1.92-.24,2.88-.1,1.12-.13,2.25-.24,3.36-.11,1.11-.11,2.27-.24,3.36-.11.93-.09,1.99-.24,2.88-.07.4-.14,1.1-.24,1.44-.06.19-.17.54-.24.72-.62,1.56-3.16,4.29-4.76,4.79-.23.07-.69-.18-.71.24H14.82c-.07-.45-.68-.15-.95-.24-1.53-.48-4.15-3.27-4.76-4.79-.06-.14-.15-.65-.24-.96-.1-.35-.18-1.04-.24-1.44-.15-.97-.12-2.1-.24-3.12-.11-1.02-.14-2.08-.24-3.12-.1-1.03-.14-2.08-.24-3.12-.09-1.03-.15-2.08-.24-3.12-.09-1.03-.15-2.08-.24-3.12-.09-1.03-.15-2.08-.24-3.12-.09-1.03-.15-2.08-.24-3.12-.09-1.11-.15-2.24-.24-3.36-.08-1.03-.16-2.08-.24-3.12-.08-1.03-.16-2.08-.24-3.12-.08-1.03-.16-2.08-.24-3.12-.08-1.03-.16-2.08-.24-3.12-.08-1.03-.16-2.08-.24-3.12-.07-.96-.16-1.93-.24-2.88-.08-1.03-.16-2.08-.24-3.12-.09-1.11-.15-2.24-.24-3.36-.08-1.03-.16-2.09-.24-3.12-.08-1.04-.16-2.09-.24-3.12-.08-1.04-.16-2.09-.24-3.12,0,0,7.27-3.74,15.42-.36,2.11.87,4.46.9,6.56,0,5.16-2.19,13.05-3.32,18.94-1.23,2.91,1.03,6.08,1.17,9.09.47,3.38-.79,7.84-1.36,11.64-.26.43.12.88.17,1.32.1,3.56-.58,20.22-3.09,19.31,1.03Z"/>
</svg>